<svg xmlns="http://www.w3.org/2000/svg" viewBox="802 592 446 348"><style>path{fill:#1A1A1A}@media(prefers-color-scheme:dark){path{fill:#FAF8F5}}</style><path d="M911.706 607.386C945.676 604.068 987.294 624.662 1006.56 652.412C1026.94 681.785 1038.3 657.41 1055.38 640.153C1098.4 596.683 1165.98 595.569 1208.95 640.076C1245.97 678.423 1242.12 714.693 1241.76 763.257C1230.54 763.205 1181.49 764.377 1175.84 761.677C1149.53 749.115 1181.44 707.451 1138.87 691.493C1110.15 688.83 1099.18 712.685 1081.96 729.773C1066.97 744.872 1046.46 753.189 1025.19 752.795C987.433 752.352 971.032 734.236 948.794 707.985C929.81 685.575 893.637 686.051 888.311 720.184C886.006 734.956 890.932 760.838 870.549 762.962C850.511 764.064 829.189 763.398 808.851 763.332C808.544 719.61 805.225 684.94 835.275 647.884C855.332 623.151 880.434 610.575 911.706 607.386Z"/><path d="M809.011 779.303C827.588 779.334 846.528 778.795 865.04 779.17C900.671 778.59 876.864 824.231 897.406 840.737C928.13 865.425 951.368 827.54 967.441 811.54C982.871 795.904 1004 787.219 1025.96 787.482C1063.28 787.834 1079.45 806.702 1101.78 832.433C1118.75 851.974 1150.19 856.61 1161.03 827.826C1168.08 809.106 1155.63 779.552 1184.98 779.208C1203.82 778.841 1222.81 779.216 1241.64 779.341C1242.04 807.207 1243.56 825.887 1236.26 853.254C1204.85 939.149 1107.26 959.48 1045.94 890.867C1039.57 883.74 1034.18 875.271 1024.05 873.42C1013.59 875.06 1001.08 894.164 992.816 902.21C972.33 921.861 944.864 932.549 916.484 931.913C887.264 931.407 861.092 918.876 841.185 897.844C806.376 861.066 808.084 825.814 809.011 779.303Z"/></svg>